<?xml version="1.0" encoding="utf-8"?><!-- Uploaded to: SVG Repo, www.svgrepo.com, Generator: SVG Repo Mixer Tools -->
<svg width="800px" height="800px" viewBox="0 0 32 32" fill="none" xmlns="http://www.w3.org/2000/svg">
<circle cx="16" cy="16" r="14" fill="white"/>
<path d="M16 30C23.732 30 30 23.732 30 16C30 8.26801 23.732 2 16 2C8.26801 2 2 8.26801 2 16C2 21.6801 5.38269 26.5702 10.2435 28.7655C10.25 28.6141 10.2573 28.4752 10.2636 28.3561C10.2722 28.1938 10.2788 28.0682 10.2788 27.9976C10.2788 27.5769 10.5649 25.4904 10.5649 25.4904L12.3149 18.3053C12.0457 17.8678 11.8438 16.9423 11.8438 16.2356C11.8438 12.9711 13.6611 12.2644 14.7716 12.2644C16.1851 12.2644 16.5048 13.7957 16.5048 14.9231C16.5048 15.5194 16.1955 16.4528 15.8772 17.4134C15.5398 18.4314 15.1923 19.4799 15.1923 20.1899C15.1923 21.5697 16.5553 22.2596 17.4976 22.2596C19.988 22.2596 22.2764 19.1298 22.2764 16C22.2764 12.8702 20.8125 9.08412 16.0168 9.08412C11.2212 9.08412 9.06731 12.7356 9.06731 15.5288C9.06731 17.4134 9.77404 18.7933 10.1274 19.0288C10.2284 19.1186 10.4 19.3957 10.2788 19.786C10.1577 20.1764 9.9367 21.0481 9.84135 21.4351C9.83013 21.5248 9.72356 21.6774 9.38702 21.5697C8.96635 21.4351 6.29087 19.7524 6.29087 15.5288C6.29087 11.3053 9.60577 6.39182 16.0168 6.39182C22.4279 6.39182 25.7091 10.6995 25.7091 16C25.7091 21.3005 21.4183 24.6827 18.1538 24.6827C15.5423 24.6827 14.5192 23.516 14.3341 22.9327L13.3413 26.7187C13.1069 27.3468 12.6696 28.4757 12.1304 29.4583C13.3594 29.8111 14.6576 30 16 30Z" fill="#BB0F23"/>
</svg>